<?xml version="1.0" encoding="utf-8"?>
<!-- Generator: Adobe Illustrator 27.5.0, SVG Export Plug-In . SVG Version: 6.00 Build 0)  -->
<svg version="1.1" id="Ebene_1" xmlns="http://www.w3.org/2000/svg" xmlns:xlink="http://www.w3.org/1999/xlink" x="0px" y="0px"
	 viewBox="0 0 60 35" style="enable-background:new 0 0 60 35;" xml:space="preserve">
<style type="text/css">
	.st0{fill:#FFFFFF;}
</style>
<g>
	<path class="st0" d="M1.2,13c0.6-1.1,1.5-2,2.6-2.7c1.1-0.6,2.4-0.9,3.8-0.9c1.8,0,3.3,0.5,4.5,1.4c1.2,0.9,2,2.2,2.4,3.9h-4
		c-0.2-0.6-0.6-1.1-1.1-1.5c-0.5-0.4-1.1-0.5-1.9-0.5c-1.1,0-1.9,0.4-2.5,1.2c-0.6,0.8-0.9,1.9-0.9,3.3c0,1.4,0.3,2.5,0.9,3.3
		c0.6,0.8,1.5,1.2,2.5,1.2c1.5,0,2.5-0.7,3-2h4c-0.4,1.6-1.2,2.9-2.4,3.8c-1.2,0.9-2.7,1.4-4.5,1.4c-1.4,0-2.7-0.3-3.8-0.9
		c-1.1-0.6-2-1.5-2.6-2.7c-0.6-1.1-0.9-2.5-0.9-4C0.3,15.5,0.6,14.1,1.2,13z"/>
	<path class="st0" d="M17.3,13c0.6-1.2,1.4-2,2.4-2.7c1-0.6,2.2-0.9,3.4-0.9c1.1,0,2.1,0.2,2.9,0.7c0.8,0.4,1.5,1,2,1.7V9.6h3.8
		v14.8H28v-2.2c-0.5,0.7-1.1,1.3-2,1.7c-0.8,0.5-1.8,0.7-2.9,0.7c-1.2,0-2.4-0.3-3.4-1c-1-0.6-1.8-1.5-2.4-2.7
		c-0.6-1.2-0.9-2.5-0.9-4C16.4,15.5,16.7,14.1,17.3,13z M27.5,14.7c-0.4-0.6-0.8-1.1-1.4-1.5c-0.6-0.3-1.3-0.5-1.9-0.5
		c-0.7,0-1.3,0.2-1.9,0.5c-0.6,0.3-1.1,0.8-1.4,1.5c-0.4,0.6-0.5,1.4-0.5,2.3s0.2,1.7,0.5,2.3c0.4,0.7,0.8,1.2,1.4,1.5
		c0.6,0.4,1.2,0.5,1.9,0.5c0.7,0,1.3-0.2,1.9-0.5c0.6-0.3,1.1-0.8,1.4-1.5c0.4-0.6,0.5-1.4,0.5-2.3C28,16.1,27.8,15.3,27.5,14.7z"/>
	<path class="st0" d="M39.7,12.7v7.1c0,0.5,0.1,0.9,0.4,1.1c0.2,0.2,0.6,0.3,1.2,0.3H43v3.1h-2.3c-3.1,0-4.7-1.5-4.7-4.6v-7.1h-1.8
		V9.6H36V6h3.8v3.7H43v3.1H39.7z"/>
	<path class="st0" d="M48.5,23.7c-1.1-0.6-2-1.5-2.7-2.7c-0.6-1.2-1-2.5-1-4c0-1.5,0.3-2.8,1-4c0.7-1.2,1.6-2,2.7-2.7
		s2.4-0.9,3.9-0.9s2.7,0.3,3.9,0.9s2.1,1.5,2.7,2.7c0.7,1.2,1,2.5,1,4c0,1.5-0.3,2.8-1,4c-0.7,1.2-1.6,2-2.8,2.7
		c-1.2,0.6-2.5,0.9-3.9,0.9C50.9,24.6,49.6,24.3,48.5,23.7z M54.2,20.9c0.6-0.3,1.1-0.8,1.4-1.5c0.4-0.7,0.5-1.5,0.5-2.4
		c0-1.4-0.4-2.5-1.1-3.2c-0.7-0.8-1.6-1.1-2.7-1.1c-1.1,0-2,0.4-2.7,1.1c-0.7,0.8-1.1,1.8-1.1,3.2c0,1.4,0.4,2.5,1.1,3.2
		c0.7,0.8,1.6,1.1,2.7,1.1C53,21.4,53.6,21.2,54.2,20.9z"/>
</g>
</svg>
